<svg id="Layer_1" data-name="Layer 1" xmlns="http://www.w3.org/2000/svg" viewBox="0 0 85 111.59"><defs><style>.cls-1,.cls-3,.cls-7{fill:#fff;}.cls-1,.cls-2{stroke:#231f20;stroke-miterlimit:10;stroke-width:5px;}.cls-2{fill:#231f20;}.cls-3{font-size:12px;}.cls-3,.cls-7{font-family:MyriadPro-Regular, Myriad Pro;}.cls-4{letter-spacing:-0.04em;}.cls-5{letter-spacing:0em;}.cls-6{letter-spacing:-0.01em;}.cls-7{font-size:6px;}.cls-8{letter-spacing:0em;}</style></defs><path class="cls-1" d="M8.5,2.5h68a6,6,0,0,1,6,6v74a0,0,0,0,1,0,0H2.5a0,0,0,0,1,0,0V8.5A6,6,0,0,1,8.5,2.5Z"/><path class="cls-2" d="M2.5,82.94h80a0,0,0,0,1,0,0v20.15a6,6,0,0,1-6,6H8.5a6,6,0,0,1-6-6V82.94A0,0,0,0,1,2.5,82.94Z"/><text class="cls-3" transform="translate(18.42 98.45)"><tspan class="cls-4">F</tspan><tspan class="cls-5" x="5.3" y="0">a</tspan><tspan class="cls-6" x="11.09" y="0">c</tspan><tspan x="16.39" y="0">ebook</tspan></text><text class="cls-7" transform="translate(30.94 106.3)">S<tspan class="cls-8" x="2.96" y="0">C</tspan><tspan x="6.46" y="0">AN ME</tspan></text></svg>