<svg id="Layer_1" data-name="Layer 1" xmlns="http://www.w3.org/2000/svg" viewBox="0 0 85 111.59"><defs><style>.cls-1,.cls-3{fill:#fff;}.cls-1,.cls-2{stroke:#231f20;stroke-miterlimit:10;stroke-width:5px;}.cls-2{fill:#231f20;}.cls-3{font-size:12px;font-family:MyriadPro-Regular, Myriad Pro;}</style></defs><path class="cls-1" d="M8.5,2.5h68a6,6,0,0,1,6,6v74a0,0,0,0,1,0,0H2.5a0,0,0,0,1,0,0V8.5A6,6,0,0,1,8.5,2.5Z"/><path class="cls-2" d="M2.5,82.94h80a0,0,0,0,1,0,0v20.15a6,6,0,0,1-6,6H8.5a6,6,0,0,1-6-6V82.94A0,0,0,0,1,2.5,82.94Z"/><text class="cls-3" transform="translate(24.6 99.53)">GitHub</text></svg>