<svg id="Layer_1" data-name="Layer 1" xmlns="http://www.w3.org/2000/svg" viewBox="0 0 85 111.59"><defs><style>.cls-1,.cls-3,.cls-4{fill:#fff;}.cls-1,.cls-2{stroke:#231f20;stroke-miterlimit:10;stroke-width:5px;}.cls-2{fill:#231f20;}.cls-3{font-size:12px;}.cls-3,.cls-4{font-family:MyriadPro-Regular, Myriad Pro;}.cls-4{font-size:6px;}.cls-5{letter-spacing:0em;}</style></defs><path class="cls-1" d="M8.5,2.5h68a6,6,0,0,1,6,6v74a0,0,0,0,1,0,0H2.5a0,0,0,0,1,0,0V8.5A6,6,0,0,1,8.5,2.5Z"/><path class="cls-2" d="M2.5,82.94h80a0,0,0,0,1,0,0v20.15a6,6,0,0,1-6,6H8.5a6,6,0,0,1-6-6V82.94A0,0,0,0,1,2.5,82.94Z"/><text class="cls-3" transform="translate(39.07 99.18)">X</text><text class="cls-4" transform="translate(30.94 106.3)">S<tspan class="cls-5" x="2.96" y="0">C</tspan><tspan x="6.46" y="0">AN ME</tspan></text></svg>